# Small shot glass model
# Dimensions: top diameter 40mm, bottom diameter 34mm, height 105mm
v 17.0000 0.0000 0.0000
v 16.9636 1.1119 0.0000
v 16.8546 2.2189 0.0000
v 16.6733 3.3165 0.0000
v 16.4207 4.3999 0.0000
v 16.0978 5.4645 0.0000
v 15.7060 6.5056 0.0000
v 15.2468 7.5189 0.0000
v 14.7224 8.5000 0.0000
v 14.1350 9.4447 0.0000
v 13.4870 10.3489 0.0000
v 12.7813 11.2089 0.0000
v 12.0208 12.0208 0.0000
v 11.2089 12.7813 0.0000
v 10.3489 13.4870 0.0000
v 9.4447 14.1350 0.0000
v 8.5000 14.7224 0.0000
v 7.5189 15.2468 0.0000
v 6.5056 15.7060 0.0000
v 5.4645 16.0978 0.0000
v 4.3999 16.4207 0.0000
v 3.3165 16.6733 0.0000
v 2.2189 16.8546 0.0000
v 1.1119 16.9636 0.0000
v 0.0000 17.0000 0.0000
v -1.1119 16.9636 0.0000
v -2.2189 16.8546 0.0000
v -3.3165 16.6733 0.0000
v -4.3999 16.4207 0.0000
v -5.4645 16.0978 0.0000
v -6.5056 15.7060 0.0000
v -7.5189 15.2468 0.0000
v -8.5000 14.7224 0.0000
v -9.4447 14.1350 0.0000
v -10.3489 13.4870 0.0000
v -11.2089 12.7813 0.0000
v -12.0208 12.0208 0.0000
v -12.7813 11.2089 0.0000
v -13.4870 10.3489 0.0000
v -14.1350 9.4447 0.0000
v -14.7224 8.5000 0.0000
v -15.2468 7.5189 0.0000
v -15.7060 6.5056 0.0000
v -16.0978 5.4645 0.0000
v -16.4207 4.3999 0.0000
v -16.6733 3.3165 0.0000
v -16.8546 2.2189 0.0000
v -16.9636 1.1119 0.0000
v -17.0000 0.0000 0.0000
v -16.9636 -1.1119 0.0000
v -16.8546 -2.2189 0.0000
v -16.6733 -3.3165 0.0000
v -16.4207 -4.3999 0.0000
v -16.0978 -5.4645 0.0000
v -15.7060 -6.5056 0.0000
v -15.2468 -7.5189 0.0000
v -14.7224 -8.5000 0.0000
v -14.1350 -9.4447 0.0000
v -13.4870 -10.3489 0.0000
v -12.7813 -11.2089 0.0000
v -12.0208 -12.0208 0.0000
v -11.2089 -12.7813 0.0000
v -10.3489 -13.4870 0.0000
v -9.4447 -14.1350 0.0000
v -8.5000 -14.7224 0.0000
v -7.5189 -15.2468 0.0000
v -6.5056 -15.7060 0.0000
v -5.4645 -16.0978 0.0000
v -4.3999 -16.4207 0.0000
v -3.3165 -16.6733 0.0000
v -2.2189 -16.8546 0.0000
v -1.1119 -16.9636 0.0000
v -0.0000 -17.0000 0.0000
v 1.1119 -16.9636 0.0000
v 2.2189 -16.8546 0.0000
v 3.3165 -16.6733 0.0000
v 4.3999 -16.4207 0.0000
v 5.4645 -16.0978 0.0000
v 6.5056 -15.7060 0.0000
v 7.5189 -15.2468 0.0000
v 8.5000 -14.7224 0.0000
v 9.4447 -14.1350 0.0000
v 10.3489 -13.4870 0.0000
v 11.2089 -12.7813 0.0000
v 12.0208 -12.0208 0.0000
v 12.7813 -11.2089 0.0000
v 13.4870 -10.3489 0.0000
v 14.1350 -9.4447 0.0000
v 14.7224 -8.5000 0.0000
v 15.2468 -7.5189 0.0000
v 15.7060 -6.5056 0.0000
v 16.0978 -5.4645 0.0000
v 16.4207 -4.3999 0.0000
v 16.6733 -3.3165 0.0000
v 16.8546 -2.2189 0.0000
v 16.9636 -1.1119 0.0000
v 17.0000 0.0000 3.0000
v 16.9636 1.1119 3.0000
v 16.8546 2.2189 3.0000
v 16.6733 3.3165 3.0000
v 16.4207 4.3999 3.0000
v 16.0978 5.4645 3.0000
v 15.7060 6.5056 3.0000
v 15.2468 7.5189 3.0000
v 14.7224 8.5000 3.0000
v 14.1350 9.4447 3.0000
v 13.4870 10.3489 3.0000
v 12.7813 11.2089 3.0000
v 12.0208 12.0208 3.0000
v 11.2089 12.7813 3.0000
v 10.3489 13.4870 3.0000
v 9.4447 14.1350 3.0000
v 8.5000 14.7224 3.0000
v 7.5189 15.2468 3.0000
v 6.5056 15.7060 3.0000
v 5.4645 16.0978 3.0000
v 4.3999 16.4207 3.0000
v 3.3165 16.6733 3.0000
v 2.2189 16.8546 3.0000
v 1.1119 16.9636 3.0000
v 0.0000 17.0000 3.0000
v -1.1119 16.9636 3.0000
v -2.2189 16.8546 3.0000
v -3.3165 16.6733 3.0000
v -4.3999 16.4207 3.0000
v -5.4645 16.0978 3.0000
v -6.5056 15.7060 3.0000
v -7.5189 15.2468 3.0000
v -8.5000 14.7224 3.0000
v -9.4447 14.1350 3.0000
v -10.3489 13.4870 3.0000
v -11.2089 12.7813 3.0000
v -12.0208 12.0208 3.0000
v -12.7813 11.2089 3.0000
v -13.4870 10.3489 3.0000
v -14.1350 9.4447 3.0000
v -14.7224 8.5000 3.0000
v -15.2468 7.5189 3.0000
v -15.7060 6.5056 3.0000
v -16.0978 5.4645 3.0000
v -16.4207 4.3999 3.0000
v -16.6733 3.3165 3.0000
v -16.8546 2.2189 3.0000
v -16.9636 1.1119 3.0000
v -17.0000 0.0000 3.0000
v -16.9636 -1.1119 3.0000
v -16.8546 -2.2189 3.0000
v -16.6733 -3.3165 3.0000
v -16.4207 -4.3999 3.0000
v -16.0978 -5.4645 3.0000
v -15.7060 -6.5056 3.0000
v -15.2468 -7.5189 3.0000
v -14.7224 -8.5000 3.0000
v -14.1350 -9.4447 3.0000
v -13.4870 -10.3489 3.0000
v -12.7813 -11.2089 3.0000
v -12.0208 -12.0208 3.0000
v -11.2089 -12.7813 3.0000
v -10.3489 -13.4870 3.0000
v -9.4447 -14.1350 3.0000
v -8.5000 -14.7224 3.0000
v -7.5189 -15.2468 3.0000
v -6.5056 -15.7060 3.0000
v -5.4645 -16.0978 3.0000
v -4.3999 -16.4207 3.0000
v -3.3165 -16.6733 3.0000
v -2.2189 -16.8546 3.0000
v -1.1119 -16.9636 3.0000
v -0.0000 -17.0000 3.0000
v 1.1119 -16.9636 3.0000
v 2.2189 -16.8546 3.0000
v 3.3165 -16.6733 3.0000
v 4.3999 -16.4207 3.0000
v 5.4645 -16.0978 3.0000
v 6.5056 -15.7060 3.0000
v 7.5189 -15.2468 3.0000
v 8.5000 -14.7224 3.0000
v 9.4447 -14.1350 3.0000
v 10.3489 -13.4870 3.0000
v 11.2089 -12.7813 3.0000
v 12.0208 -12.0208 3.0000
v 12.7813 -11.2089 3.0000
v 13.4870 -10.3489 3.0000
v 14.1350 -9.4447 3.0000
v 14.7224 -8.5000 3.0000
v 15.2468 -7.5189 3.0000
v 15.7060 -6.5056 3.0000
v 16.0978 -5.4645 3.0000
v 16.4207 -4.3999 3.0000
v 16.6733 -3.3165 3.0000
v 16.8546 -2.2189 3.0000
v 16.9636 -1.1119 3.0000
v 18.0000 0.0000 8.0000
v 17.9615 1.1773 8.0000
v 17.8460 2.3495 8.0000
v 17.6541 3.5116 8.0000
v 17.3867 4.6587 8.0000
v 17.0447 5.7859 8.0000
v 16.6298 6.8883 8.0000
v 16.1437 7.9612 8.0000
v 15.5885 9.0000 8.0000
v 14.9665 10.0003 8.0000
v 14.2804 10.9577 8.0000
v 13.5331 11.8682 8.0000
v 12.7279 12.7279 8.0000
v 11.8682 13.5331 8.0000
v 10.9577 14.2804 8.0000
v 10.0003 14.9665 8.0000
v 9.0000 15.5885 8.0000
v 7.9612 16.1437 8.0000
v 6.8883 16.6298 8.0000
v 5.7859 17.0447 8.0000
v 4.6587 17.3867 8.0000
v 3.5116 17.6541 8.0000
v 2.3495 17.8460 8.0000
v 1.1773 17.9615 8.0000
v 0.0000 18.0000 8.0000
v -1.1773 17.9615 8.0000
v -2.3495 17.8460 8.0000
v -3.5116 17.6541 8.0000
v -4.6587 17.3867 8.0000
v -5.7859 17.0447 8.0000
v -6.8883 16.6298 8.0000
v -7.9612 16.1437 8.0000
v -9.0000 15.5885 8.0000
v -10.0003 14.9665 8.0000
v -10.9577 14.2804 8.0000
v -11.8682 13.5331 8.0000
v -12.7279 12.7279 8.0000
v -13.5331 11.8682 8.0000
v -14.2804 10.9577 8.0000
v -14.9665 10.0003 8.0000
v -15.5885 9.0000 8.0000
v -16.1437 7.9612 8.0000
v -16.6298 6.8883 8.0000
v -17.0447 5.7859 8.0000
v -17.3867 4.6587 8.0000
v -17.6541 3.5116 8.0000
v -17.8460 2.3495 8.0000
v -17.9615 1.1773 8.0000
v -18.0000 0.0000 8.0000
v -17.9615 -1.1773 8.0000
v -17.8460 -2.3495 8.0000
v -17.6541 -3.5116 8.0000
v -17.3867 -4.6587 8.0000
v -17.0447 -5.7859 8.0000
v -16.6298 -6.8883 8.0000
v -16.1437 -7.9612 8.0000
v -15.5885 -9.0000 8.0000
v -14.9665 -10.0003 8.0000
v -14.2804 -10.9577 8.0000
v -13.5331 -11.8682 8.0000
v -12.7279 -12.7279 8.0000
v -11.8682 -13.5331 8.0000
v -10.9577 -14.2804 8.0000
v -10.0003 -14.9665 8.0000
v -9.0000 -15.5885 8.0000
v -7.9612 -16.1437 8.0000
v -6.8883 -16.6298 8.0000
v -5.7859 -17.0447 8.0000
v -4.6587 -17.3867 8.0000
v -3.5116 -17.6541 8.0000
v -2.3495 -17.8460 8.0000
v -1.1773 -17.9615 8.0000
v -0.0000 -18.0000 8.0000
v 1.1773 -17.9615 8.0000
v 2.3495 -17.8460 8.0000
v 3.5116 -17.6541 8.0000
v 4.6587 -17.3867 8.0000
v 5.7859 -17.0447 8.0000
v 6.8883 -16.6298 8.0000
v 7.9612 -16.1437 8.0000
v 9.0000 -15.5885 8.0000
v 10.0003 -14.9665 8.0000
v 10.9577 -14.2804 8.0000
v 11.8682 -13.5331 8.0000
v 12.7279 -12.7279 8.0000
v 13.5331 -11.8682 8.0000
v 14.2804 -10.9577 8.0000
v 14.9665 -10.0003 8.0000
v 15.5885 -9.0000 8.0000
v 16.1437 -7.9612 8.0000
v 16.6298 -6.8883 8.0000
v 17.0447 -5.7859 8.0000
v 17.3867 -4.6587 8.0000
v 17.6541 -3.5116 8.0000
v 17.8460 -2.3495 8.0000
v 17.9615 -1.1773 8.0000
v 20.0000 0.0000 100.0000
v 19.9572 1.3081 100.0000
v 19.8289 2.6105 100.0000
v 19.6157 3.9018 100.0000
v 19.3185 5.1764 100.0000
v 18.9386 6.4288 100.0000
v 18.4776 7.6537 100.0000
v 17.9375 8.8458 100.0000
v 17.3205 10.0000 100.0000
v 16.6294 11.1114 100.0000
v 15.8671 12.1752 100.0000
v 15.0368 13.1869 100.0000
v 14.1421 14.1421 100.0000
v 13.1869 15.0368 100.0000
v 12.1752 15.8671 100.0000
v 11.1114 16.6294 100.0000
v 10.0000 17.3205 100.0000
v 8.8458 17.9375 100.0000
v 7.6537 18.4776 100.0000
v 6.4288 18.9386 100.0000
v 5.1764 19.3185 100.0000
v 3.9018 19.6157 100.0000
v 2.6105 19.8289 100.0000
v 1.3081 19.9572 100.0000
v 0.0000 20.0000 100.0000
v -1.3081 19.9572 100.0000
v -2.6105 19.8289 100.0000
v -3.9018 19.6157 100.0000
v -5.1764 19.3185 100.0000
v -6.4288 18.9386 100.0000
v -7.6537 18.4776 100.0000
v -8.8458 17.9375 100.0000
v -10.0000 17.3205 100.0000
v -11.1114 16.6294 100.0000
v -12.1752 15.8671 100.0000
v -13.1869 15.0368 100.0000
v -14.1421 14.1421 100.0000
v -15.0368 13.1869 100.0000
v -15.8671 12.1752 100.0000
v -16.6294 11.1114 100.0000
v -17.3205 10.0000 100.0000
v -17.9375 8.8458 100.0000
v -18.4776 7.6537 100.0000
v -18.9386 6.4288 100.0000
v -19.3185 5.1764 100.0000
v -19.6157 3.9018 100.0000
v -19.8289 2.6105 100.0000
v -19.9572 1.3081 100.0000
v -20.0000 0.0000 100.0000
v -19.9572 -1.3081 100.0000
v -19.8289 -2.6105 100.0000
v -19.6157 -3.9018 100.0000
v -19.3185 -5.1764 100.0000
v -18.9386 -6.4288 100.0000
v -18.4776 -7.6537 100.0000
v -17.9375 -8.8458 100.0000
v -17.3205 -10.0000 100.0000
v -16.6294 -11.1114 100.0000
v -15.8671 -12.1752 100.0000
v -15.0368 -13.1869 100.0000
v -14.1421 -14.1421 100.0000
v -13.1869 -15.0368 100.0000
v -12.1752 -15.8671 100.0000
v -11.1114 -16.6294 100.0000
v -10.0000 -17.3205 100.0000
v -8.8458 -17.9375 100.0000
v -7.6537 -18.4776 100.0000
v -6.4288 -18.9386 100.0000
v -5.1764 -19.3185 100.0000
v -3.9018 -19.6157 100.0000
v -2.6105 -19.8289 100.0000
v -1.3081 -19.9572 100.0000
v -0.0000 -20.0000 100.0000
v 1.3081 -19.9572 100.0000
v 2.6105 -19.8289 100.0000
v 3.9018 -19.6157 100.0000
v 5.1764 -19.3185 100.0000
v 6.4288 -18.9386 100.0000
v 7.6537 -18.4776 100.0000
v 8.8458 -17.9375 100.0000
v 10.0000 -17.3205 100.0000
v 11.1114 -16.6294 100.0000
v 12.1752 -15.8671 100.0000
v 13.1869 -15.0368 100.0000
v 14.1421 -14.1421 100.0000
v 15.0368 -13.1869 100.0000
v 15.8671 -12.1752 100.0000
v 16.6294 -11.1114 100.0000
v 17.3205 -10.0000 100.0000
v 17.9375 -8.8458 100.0000
v 18.4776 -7.6537 100.0000
v 18.9386 -6.4288 100.0000
v 19.3185 -5.1764 100.0000
v 19.6157 -3.9018 100.0000
v 19.8289 -2.6105 100.0000
v 19.9572 -1.3081 100.0000
v 20.0000 0.0000 105.0000
v 19.9572 1.3081 105.0000
v 19.8289 2.6105 105.0000
v 19.6157 3.9018 105.0000
v 19.3185 5.1764 105.0000
v 18.9386 6.4288 105.0000
v 18.4776 7.6537 105.0000
v 17.9375 8.8458 105.0000
v 17.3205 10.0000 105.0000
v 16.6294 11.1114 105.0000
v 15.8671 12.1752 105.0000
v 15.0368 13.1869 105.0000
v 14.1421 14.1421 105.0000
v 13.1869 15.0368 105.0000
v 12.1752 15.8671 105.0000
v 11.1114 16.6294 105.0000
v 10.0000 17.3205 105.0000
v 8.8458 17.9375 105.0000
v 7.6537 18.4776 105.0000
v 6.4288 18.9386 105.0000
v 5.1764 19.3185 105.0000
v 3.9018 19.6157 105.0000
v 2.6105 19.8289 105.0000
v 1.3081 19.9572 105.0000
v 0.0000 20.0000 105.0000
v -1.3081 19.9572 105.0000
v -2.6105 19.8289 105.0000
v -3.9018 19.6157 105.0000
v -5.1764 19.3185 105.0000
v -6.4288 18.9386 105.0000
v -7.6537 18.4776 105.0000
v -8.8458 17.9375 105.0000
v -10.0000 17.3205 105.0000
v -11.1114 16.6294 105.0000
v -12.1752 15.8671 105.0000
v -13.1869 15.0368 105.0000
v -14.1421 14.1421 105.0000
v -15.0368 13.1869 105.0000
v -15.8671 12.1752 105.0000
v -16.6294 11.1114 105.0000
v -17.3205 10.0000 105.0000
v -17.9375 8.8458 105.0000
v -18.4776 7.6537 105.0000
v -18.9386 6.4288 105.0000
v -19.3185 5.1764 105.0000
v -19.6157 3.9018 105.0000
v -19.8289 2.6105 105.0000
v -19.9572 1.3081 105.0000
v -20.0000 0.0000 105.0000
v -19.9572 -1.3081 105.0000
v -19.8289 -2.6105 105.0000
v -19.6157 -3.9018 105.0000
v -19.3185 -5.1764 105.0000
v -18.9386 -6.4288 105.0000
v -18.4776 -7.6537 105.0000
v -17.9375 -8.8458 105.0000
v -17.3205 -10.0000 105.0000
v -16.6294 -11.1114 105.0000
v -15.8671 -12.1752 105.0000
v -15.0368 -13.1869 105.0000
v -14.1421 -14.1421 105.0000
v -13.1869 -15.0368 105.0000
v -12.1752 -15.8671 105.0000
v -11.1114 -16.6294 105.0000
v -10.0000 -17.3205 105.0000
v -8.8458 -17.9375 105.0000
v -7.6537 -18.4776 105.0000
v -6.4288 -18.9386 105.0000
v -5.1764 -19.3185 105.0000
v -3.9018 -19.6157 105.0000
v -2.6105 -19.8289 105.0000
v -1.3081 -19.9572 105.0000
v -0.0000 -20.0000 105.0000
v 1.3081 -19.9572 105.0000
v 2.6105 -19.8289 105.0000
v 3.9018 -19.6157 105.0000
v 5.1764 -19.3185 105.0000
v 6.4288 -18.9386 105.0000
v 7.6537 -18.4776 105.0000
v 8.8458 -17.9375 105.0000
v 10.0000 -17.3205 105.0000
v 11.1114 -16.6294 105.0000
v 12.1752 -15.8671 105.0000
v 13.1869 -15.0368 105.0000
v 14.1421 -14.1421 105.0000
v 15.0368 -13.1869 105.0000
v 15.8671 -12.1752 105.0000
v 16.6294 -11.1114 105.0000
v 17.3205 -10.0000 105.0000
v 17.9375 -8.8458 105.0000
v 18.4776 -7.6537 105.0000
v 18.9386 -6.4288 105.0000
v 19.3185 -5.1764 105.0000
v 19.6157 -3.9018 105.0000
v 19.8289 -2.6105 105.0000
v 19.9572 -1.3081 105.0000
v 17.5000 0.0000 105.0000
v 17.4625 1.1446 105.0000
v 17.3503 2.2842 105.0000
v 17.1637 3.4141 105.0000
v 16.9037 4.5293 105.0000
v 16.5713 5.6252 105.0000
v 16.1679 6.6970 105.0000
v 15.6953 7.7401 105.0000
v 15.1554 8.7500 105.0000
v 14.5507 9.7225 105.0000
v 13.8837 10.6533 105.0000
v 13.1572 11.5386 105.0000
v 12.3744 12.3744 105.0000
v 11.5386 13.1572 105.0000
v 10.6533 13.8837 105.0000
v 9.7225 14.5507 105.0000
v 8.7500 15.1554 105.0000
v 7.7401 15.6953 105.0000
v 6.6970 16.1679 105.0000
v 5.6252 16.5713 105.0000
v 4.5293 16.9037 105.0000
v 3.4141 17.1637 105.0000
v 2.2842 17.3503 105.0000
v 1.1446 17.4625 105.0000
v 0.0000 17.5000 105.0000
v -1.1446 17.4625 105.0000
v -2.2842 17.3503 105.0000
v -3.4141 17.1637 105.0000
v -4.5293 16.9037 105.0000
v -5.6252 16.5713 105.0000
v -6.6970 16.1679 105.0000
v -7.7401 15.6953 105.0000
v -8.7500 15.1554 105.0000
v -9.7225 14.5507 105.0000
v -10.6533 13.8837 105.0000
v -11.5386 13.1572 105.0000
v -12.3744 12.3744 105.0000
v -13.1572 11.5386 105.0000
v -13.8837 10.6533 105.0000
v -14.5507 9.7225 105.0000
v -15.1554 8.7500 105.0000
v -15.6953 7.7401 105.0000
v -16.1679 6.6970 105.0000
v -16.5713 5.6252 105.0000
v -16.9037 4.5293 105.0000
v -17.1637 3.4141 105.0000
v -17.3503 2.2842 105.0000
v -17.4625 1.1446 105.0000
v -17.5000 0.0000 105.0000
v -17.4625 -1.1446 105.0000
v -17.3503 -2.2842 105.0000
v -17.1637 -3.4141 105.0000
v -16.9037 -4.5293 105.0000
v -16.5713 -5.6252 105.0000
v -16.1679 -6.6970 105.0000
v -15.6953 -7.7401 105.0000
v -15.1554 -8.7500 105.0000
v -14.5507 -9.7225 105.0000
v -13.8837 -10.6533 105.0000
v -13.1572 -11.5386 105.0000
v -12.3744 -12.3744 105.0000
v -11.5386 -13.1572 105.0000
v -10.6533 -13.8837 105.0000
v -9.7225 -14.5507 105.0000
v -8.7500 -15.1554 105.0000
v -7.7401 -15.6953 105.0000
v -6.6970 -16.1679 105.0000
v -5.6252 -16.5713 105.0000
v -4.5293 -16.9037 105.0000
v -3.4141 -17.1637 105.0000
v -2.2842 -17.3503 105.0000
v -1.1446 -17.4625 105.0000
v -0.0000 -17.5000 105.0000
v 1.1446 -17.4625 105.0000
v 2.2842 -17.3503 105.0000
v 3.4141 -17.1637 105.0000
v 4.5293 -16.9037 105.0000
v 5.6252 -16.5713 105.0000
v 6.6970 -16.1679 105.0000
v 7.7401 -15.6953 105.0000
v 8.7500 -15.1554 105.0000
v 9.7225 -14.5507 105.0000
v 10.6533 -13.8837 105.0000
v 11.5386 -13.1572 105.0000
v 12.3744 -12.3744 105.0000
v 13.1572 -11.5386 105.0000
v 13.8837 -10.6533 105.0000
v 14.5507 -9.7225 105.0000
v 15.1554 -8.7500 105.0000
v 15.6953 -7.7401 105.0000
v 16.1679 -6.6970 105.0000
v 16.5713 -5.6252 105.0000
v 16.9037 -4.5293 105.0000
v 17.1637 -3.4141 105.0000
v 17.3503 -2.2842 105.0000
v 17.4625 -1.1446 105.0000
v 17.5000 0.0000 100.0000
v 17.4625 1.1446 100.0000
v 17.3503 2.2842 100.0000
v 17.1637 3.4141 100.0000
v 16.9037 4.5293 100.0000
v 16.5713 5.6252 100.0000
v 16.1679 6.6970 100.0000
v 15.6953 7.7401 100.0000
v 15.1554 8.7500 100.0000
v 14.5507 9.7225 100.0000
v 13.8837 10.6533 100.0000
v 13.1572 11.5386 100.0000
v 12.3744 12.3744 100.0000
v 11.5386 13.1572 100.0000
v 10.6533 13.8837 100.0000
v 9.7225 14.5507 100.0000
v 8.7500 15.1554 100.0000
v 7.7401 15.6953 100.0000
v 6.6970 16.1679 100.0000
v 5.6252 16.5713 100.0000
v 4.5293 16.9037 100.0000
v 3.4141 17.1637 100.0000
v 2.2842 17.3503 100.0000
v 1.1446 17.4625 100.0000
v 0.0000 17.5000 100.0000
v -1.1446 17.4625 100.0000
v -2.2842 17.3503 100.0000
v -3.4141 17.1637 100.0000
v -4.5293 16.9037 100.0000
v -5.6252 16.5713 100.0000
v -6.6970 16.1679 100.0000
v -7.7401 15.6953 100.0000
v -8.7500 15.1554 100.0000
v -9.7225 14.5507 100.0000
v -10.6533 13.8837 100.0000
v -11.5386 13.1572 100.0000
v -12.3744 12.3744 100.0000
v -13.1572 11.5386 100.0000
v -13.8837 10.6533 100.0000
v -14.5507 9.7225 100.0000
v -15.1554 8.7500 100.0000
v -15.6953 7.7401 100.0000
v -16.1679 6.6970 100.0000
v -16.5713 5.6252 100.0000
v -16.9037 4.5293 100.0000
v -17.1637 3.4141 100.0000
v -17.3503 2.2842 100.0000
v -17.4625 1.1446 100.0000
v -17.5000 0.0000 100.0000
v -17.4625 -1.1446 100.0000
v -17.3503 -2.2842 100.0000
v -17.1637 -3.4141 100.0000
v -16.9037 -4.5293 100.0000
v -16.5713 -5.6252 100.0000
v -16.1679 -6.6970 100.0000
v -15.6953 -7.7401 100.0000
v -15.1554 -8.7500 100.0000
v -14.5507 -9.7225 100.0000
v -13.8837 -10.6533 100.0000
v -13.1572 -11.5386 100.0000
v -12.3744 -12.3744 100.0000
v -11.5386 -13.1572 100.0000
v -10.6533 -13.8837 100.0000
v -9.7225 -14.5507 100.0000
v -8.7500 -15.1554 100.0000
v -7.7401 -15.6953 100.0000
v -6.6970 -16.1679 100.0000
v -5.6252 -16.5713 100.0000
v -4.5293 -16.9037 100.0000
v -3.4141 -17.1637 100.0000
v -2.2842 -17.3503 100.0000
v -1.1446 -17.4625 100.0000
v -0.0000 -17.5000 100.0000
v 1.1446 -17.4625 100.0000
v 2.2842 -17.3503 100.0000
v 3.4141 -17.1637 100.0000
v 4.5293 -16.9037 100.0000
v 5.6252 -16.5713 100.0000
v 6.6970 -16.1679 100.0000
v 7.7401 -15.6953 100.0000
v 8.7500 -15.1554 100.0000
v 9.7225 -14.5507 100.0000
v 10.6533 -13.8837 100.0000
v 11.5386 -13.1572 100.0000
v 12.3744 -12.3744 100.0000
v 13.1572 -11.5386 100.0000
v 13.8837 -10.6533 100.0000
v 14.5507 -9.7225 100.0000
v 15.1554 -8.7500 100.0000
v 15.6953 -7.7401 100.0000
v 16.1679 -6.6970 100.0000
v 16.5713 -5.6252 100.0000
v 16.9037 -4.5293 100.0000
v 17.1637 -3.4141 100.0000
v 17.3503 -2.2842 100.0000
v 17.4625 -1.1446 100.0000
v 14.5000 0.0000 10.0000
v 14.4690 0.9483 10.0000
v 14.3760 1.8926 10.0000
v 14.2214 2.8288 10.0000
v 14.0059 3.7529 10.0000
v 13.7305 4.6609 10.0000
v 13.3963 5.5489 10.0000
v 13.0047 6.4132 10.0000
v 12.5574 7.2500 10.0000
v 12.0563 8.0558 10.0000
v 11.5036 8.8270 10.0000
v 10.9017 9.5605 10.0000
v 10.2530 10.2530 10.0000
v 9.5605 10.9017 10.0000
v 8.8270 11.5036 10.0000
v 8.0558 12.0563 10.0000
v 7.2500 12.5574 10.0000
v 6.4132 13.0047 10.0000
v 5.5489 13.3963 10.0000
v 4.6609 13.7305 10.0000
v 3.7529 14.0059 10.0000
v 2.8288 14.2214 10.0000
v 1.8926 14.3760 10.0000
v 0.9483 14.4690 10.0000
v 0.0000 14.5000 10.0000
v -0.9483 14.4690 10.0000
v -1.8926 14.3760 10.0000
v -2.8288 14.2214 10.0000
v -3.7529 14.0059 10.0000
v -4.6609 13.7305 10.0000
v -5.5489 13.3963 10.0000
v -6.4132 13.0047 10.0000
v -7.2500 12.5574 10.0000
v -8.0558 12.0563 10.0000
v -8.8270 11.5036 10.0000
v -9.5605 10.9017 10.0000
v -10.2530 10.2530 10.0000
v -10.9017 9.5605 10.0000
v -11.5036 8.8270 10.0000
v -12.0563 8.0558 10.0000
v -12.5574 7.2500 10.0000
v -13.0047 6.4132 10.0000
v -13.3963 5.5489 10.0000
v -13.7305 4.6609 10.0000
v -14.0059 3.7529 10.0000
v -14.2214 2.8288 10.0000
v -14.3760 1.8926 10.0000
v -14.4690 0.9483 10.0000
v -14.5000 0.0000 10.0000
v -14.4690 -0.9483 10.0000
v -14.3760 -1.8926 10.0000
v -14.2214 -2.8288 10.0000
v -14.0059 -3.7529 10.0000
v -13.7305 -4.6609 10.0000
v -13.3963 -5.5489 10.0000
v -13.0047 -6.4132 10.0000
v -12.5574 -7.2500 10.0000
v -12.0563 -8.0558 10.0000
v -11.5036 -8.8270 10.0000
v -10.9017 -9.5605 10.0000
v -10.2530 -10.2530 10.0000
v -9.5605 -10.9017 10.0000
v -8.8270 -11.5036 10.0000
v -8.0558 -12.0563 10.0000
v -7.2500 -12.5574 10.0000
v -6.4132 -13.0047 10.0000
v -5.5489 -13.3963 10.0000
v -4.6609 -13.7305 10.0000
v -3.7529 -14.0059 10.0000
v -2.8288 -14.2214 10.0000
v -1.8926 -14.3760 10.0000
v -0.9483 -14.4690 10.0000
v -0.0000 -14.5000 10.0000
v 0.9483 -14.4690 10.0000
v 1.8926 -14.3760 10.0000
v 2.8288 -14.2214 10.0000
v 3.7529 -14.0059 10.0000
v 4.6609 -13.7305 10.0000
v 5.5489 -13.3963 10.0000
v 6.4132 -13.0047 10.0000
v 7.2500 -12.5574 10.0000
v 8.0558 -12.0563 10.0000
v 8.8270 -11.5036 10.0000
v 9.5605 -10.9017 10.0000
v 10.2530 -10.2530 10.0000
v 10.9017 -9.5605 10.0000
v 11.5036 -8.8270 10.0000
v 12.0563 -8.0558 10.0000
v 12.5574 -7.2500 10.0000
v 13.0047 -6.4132 10.0000
v 13.3963 -5.5489 10.0000
v 13.7305 -4.6609 10.0000
v 14.0059 -3.7529 10.0000
v 14.2214 -2.8288 10.0000
v 14.3760 -1.8926 10.0000
v 14.4690 -0.9483 10.0000
v 14.0000 0.0000 5.0000
v 13.9700 0.9156 5.0000
v 13.8802 1.8274 5.0000
v 13.7310 2.7313 5.0000
v 13.5230 3.6235 5.0000
v 13.2570 4.5002 5.0000
v 12.9343 5.3576 5.0000
v 12.5562 6.1920 5.0000
v 12.1244 7.0000 5.0000
v 11.6406 7.7780 5.0000
v 11.1069 8.5227 5.0000
v 10.5258 9.2308 5.0000
v 9.8995 9.8995 5.0000
v 9.2308 10.5258 5.0000
v 8.5227 11.1069 5.0000
v 7.7780 11.6406 5.0000
v 7.0000 12.1244 5.0000
v 6.1920 12.5562 5.0000
v 5.3576 12.9343 5.0000
v 4.5002 13.2570 5.0000
v 3.6235 13.5230 5.0000
v 2.7313 13.7310 5.0000
v 1.8274 13.8802 5.0000
v 0.9156 13.9700 5.0000
v 0.0000 14.0000 5.0000
v -0.9156 13.9700 5.0000
v -1.8274 13.8802 5.0000
v -2.7313 13.7310 5.0000
v -3.6235 13.5230 5.0000
v -4.5002 13.2570 5.0000
v -5.3576 12.9343 5.0000
v -6.1920 12.5562 5.0000
v -7.0000 12.1244 5.0000
v -7.7780 11.6406 5.0000
v -8.5227 11.1069 5.0000
v -9.2308 10.5258 5.0000
v -9.8995 9.8995 5.0000
v -10.5258 9.2308 5.0000
v -11.1069 8.5227 5.0000
v -11.6406 7.7780 5.0000
v -12.1244 7.0000 5.0000
v -12.5562 6.1920 5.0000
v -12.9343 5.3576 5.0000
v -13.2570 4.5002 5.0000
v -13.5230 3.6235 5.0000
v -13.7310 2.7313 5.0000
v -13.8802 1.8274 5.0000
v -13.9700 0.9156 5.0000
v -14.0000 0.0000 5.0000
v -13.9700 -0.9156 5.0000
v -13.8802 -1.8274 5.0000
v -13.7310 -2.7313 5.0000
v -13.5230 -3.6235 5.0000
v -13.2570 -4.5002 5.0000
v -12.9343 -5.3576 5.0000
v -12.5562 -6.1920 5.0000
v -12.1244 -7.0000 5.0000
v -11.6406 -7.7780 5.0000
v -11.1069 -8.5227 5.0000
v -10.5258 -9.2308 5.0000
v -9.8995 -9.8995 5.0000
v -9.2308 -10.5258 5.0000
v -8.5227 -11.1069 5.0000
v -7.7780 -11.6406 5.0000
v -7.0000 -12.1244 5.0000
v -6.1920 -12.5562 5.0000
v -5.3576 -12.9343 5.0000
v -4.5002 -13.2570 5.0000
v -3.6235 -13.5230 5.0000
v -2.7313 -13.7310 5.0000
v -1.8274 -13.8802 5.0000
v -0.9156 -13.9700 5.0000
v -0.0000 -14.0000 5.0000
v 0.9156 -13.9700 5.0000
v 1.8274 -13.8802 5.0000
v 2.7313 -13.7310 5.0000
v 3.6235 -13.5230 5.0000
v 4.5002 -13.2570 5.0000
v 5.3576 -12.9343 5.0000
v 6.1920 -12.5562 5.0000
v 7.0000 -12.1244 5.0000
v 7.7780 -11.6406 5.0000
v 8.5227 -11.1069 5.0000
v 9.2308 -10.5258 5.0000
v 9.8995 -9.8995 5.0000
v 10.5258 -9.2308 5.0000
v 11.1069 -8.5227 5.0000
v 11.6406 -7.7780 5.0000
v 12.1244 -7.0000 5.0000
v 12.5562 -6.1920 5.0000
v 12.9343 -5.3576 5.0000
v 13.2570 -4.5002 5.0000
v 13.5230 -3.6235 5.0000
v 13.7310 -2.7313 5.0000
v 13.8802 -1.8274 5.0000
v 13.9700 -0.9156 5.0000
v 14.0000 0.0000 0.0000
v 13.9700 0.9156 0.0000
v 13.8802 1.8274 0.0000
v 13.7310 2.7313 0.0000
v 13.5230 3.6235 0.0000
v 13.2570 4.5002 0.0000
v 12.9343 5.3576 0.0000
v 12.5562 6.1920 0.0000
v 12.1244 7.0000 0.0000
v 11.6406 7.7780 0.0000
v 11.1069 8.5227 0.0000
v 10.5258 9.2308 0.0000
v 9.8995 9.8995 0.0000
v 9.2308 10.5258 0.0000
v 8.5227 11.1069 0.0000
v 7.7780 11.6406 0.0000
v 7.0000 12.1244 0.0000
v 6.1920 12.5562 0.0000
v 5.3576 12.9343 0.0000
v 4.5002 13.2570 0.0000
v 3.6235 13.5230 0.0000
v 2.7313 13.7310 0.0000
v 1.8274 13.8802 0.0000
v 0.9156 13.9700 0.0000
v 0.0000 14.0000 0.0000
v -0.9156 13.9700 0.0000
v -1.8274 13.8802 0.0000
v -2.7313 13.7310 0.0000
v -3.6235 13.5230 0.0000
v -4.5002 13.2570 0.0000
v -5.3576 12.9343 0.0000
v -6.1920 12.5562 0.0000
v -7.0000 12.1244 0.0000
v -7.7780 11.6406 0.0000
v -8.5227 11.1069 0.0000
v -9.2308 10.5258 0.0000
v -9.8995 9.8995 0.0000
v -10.5258 9.2308 0.0000
v -11.1069 8.5227 0.0000
v -11.6406 7.7780 0.0000
v -12.1244 7.0000 0.0000
v -12.5562 6.1920 0.0000
v -12.9343 5.3576 0.0000
v -13.2570 4.5002 0.0000
v -13.5230 3.6235 0.0000
v -13.7310 2.7313 0.0000
v -13.8802 1.8274 0.0000
v -13.9700 0.9156 0.0000
v -14.0000 0.0000 0.0000
v -13.9700 -0.9156 0.0000
v -13.8802 -1.8274 0.0000
v -13.7310 -2.7313 0.0000
v -13.5230 -3.6235 0.0000
v -13.2570 -4.5002 0.0000
v -12.9343 -5.3576 0.0000
v -12.5562 -6.1920 0.0000
v -12.1244 -7.0000 0.0000
v -11.6406 -7.7780 0.0000
v -11.1069 -8.5227 0.0000
v -10.5258 -9.2308 0.0000
v -9.8995 -9.8995 0.0000
v -9.2308 -10.5258 0.0000
v -8.5227 -11.1069 0.0000
v -7.7780 -11.6406 0.0000
v -7.0000 -12.1244 0.0000
v -6.1920 -12.5562 0.0000
v -5.3576 -12.9343 0.0000
v -4.5002 -13.2570 0.0000
v -3.6235 -13.5230 0.0000
v -2.7313 -13.7310 0.0000
v -1.8274 -13.8802 0.0000
v -0.9156 -13.9700 0.0000
v -0.0000 -14.0000 0.0000
v 0.9156 -13.9700 0.0000
v 1.8274 -13.8802 0.0000
v 2.7313 -13.7310 0.0000
v 3.6235 -13.5230 0.0000
v 4.5002 -13.2570 0.0000
v 5.3576 -12.9343 0.0000
v 6.1920 -12.5562 0.0000
v 7.0000 -12.1244 0.0000
v 7.7780 -11.6406 0.0000
v 8.5227 -11.1069 0.0000
v 9.2308 -10.5258 0.0000
v 9.8995 -9.8995 0.0000
v 10.5258 -9.2308 0.0000
v 11.1069 -8.5227 0.0000
v 11.6406 -7.7780 0.0000
v 12.1244 -7.0000 0.0000
v 12.5562 -6.1920 0.0000
v 12.9343 -5.3576 0.0000
v 13.2570 -4.5002 0.0000
v 13.5230 -3.6235 0.0000
v 13.7310 -2.7313 0.0000
v 13.8802 -1.8274 0.0000
v 13.9700 -0.9156 0.0000
f 1 2 98 97
f 2 3 99 98
f 3 4 100 99
f 4 5 101 100
f 5 6 102 101
f 6 7 103 102
f 7 8 104 103
f 8 9 105 104
f 9 10 106 105
f 10 11 107 106
f 11 12 108 107
f 12 13 109 108
f 13 14 110 109
f 14 15 111 110
f 15 16 112 111
f 16 17 113 112
f 17 18 114 113
f 18 19 115 114
f 19 20 116 115
f 20 21 117 116
f 21 22 118 117
f 22 23 119 118
f 23 24 120 119
f 24 25 121 120
f 25 26 122 121
f 26 27 123 122
f 27 28 124 123
f 28 29 125 124
f 29 30 126 125
f 30 31 127 126
f 31 32 128 127
f 32 33 129 128
f 33 34 130 129
f 34 35 131 130
f 35 36 132 131
f 36 37 133 132
f 37 38 134 133
f 38 39 135 134
f 39 40 136 135
f 40 41 137 136
f 41 42 138 137
f 42 43 139 138
f 43 44 140 139
f 44 45 141 140
f 45 46 142 141
f 46 47 143 142
f 47 48 144 143
f 48 49 145 144
f 49 50 146 145
f 50 51 147 146
f 51 52 148 147
f 52 53 149 148
f 53 54 150 149
f 54 55 151 150
f 55 56 152 151
f 56 57 153 152
f 57 58 154 153
f 58 59 155 154
f 59 60 156 155
f 60 61 157 156
f 61 62 158 157
f 62 63 159 158
f 63 64 160 159
f 64 65 161 160
f 65 66 162 161
f 66 67 163 162
f 67 68 164 163
f 68 69 165 164
f 69 70 166 165
f 70 71 167 166
f 71 72 168 167
f 72 73 169 168
f 73 74 170 169
f 74 75 171 170
f 75 76 172 171
f 76 77 173 172
f 77 78 174 173
f 78 79 175 174
f 79 80 176 175
f 80 81 177 176
f 81 82 178 177
f 82 83 179 178
f 83 84 180 179
f 84 85 181 180
f 85 86 182 181
f 86 87 183 182
f 87 88 184 183
f 88 89 185 184
f 89 90 186 185
f 90 91 187 186
f 91 92 188 187
f 92 93 189 188
f 93 94 190 189
f 94 95 191 190
f 95 96 192 191
f 96 1 97 192
f 97 98 194 193
f 98 99 195 194
f 99 100 196 195
f 100 101 197 196
f 101 102 198 197
f 102 103 199 198
f 103 104 200 199
f 104 105 201 200
f 105 106 202 201
f 106 107 203 202
f 107 108 204 203
f 108 109 205 204
f 109 110 206 205
f 110 111 207 206
f 111 112 208 207
f 112 113 209 208
f 113 114 210 209
f 114 115 211 210
f 115 116 212 211
f 116 117 213 212
f 117 118 214 213
f 118 119 215 214
f 119 120 216 215
f 120 121 217 216
f 121 122 218 217
f 122 123 219 218
f 123 124 220 219
f 124 125 221 220
f 125 126 222 221
f 126 127 223 222
f 127 128 224 223
f 128 129 225 224
f 129 130 226 225
f 130 131 227 226
f 131 132 228 227
f 132 133 229 228
f 133 134 230 229
f 134 135 231 230
f 135 136 232 231
f 136 137 233 232
f 137 138 234 233
f 138 139 235 234
f 139 140 236 235
f 140 141 237 236
f 141 142 238 237
f 142 143 239 238
f 143 144 240 239
f 144 145 241 240
f 145 146 242 241
f 146 147 243 242
f 147 148 244 243
f 148 149 245 244
f 149 150 246 245
f 150 151 247 246
f 151 152 248 247
f 152 153 249 248
f 153 154 250 249
f 154 155 251 250
f 155 156 252 251
f 156 157 253 252
f 157 158 254 253
f 158 159 255 254
f 159 160 256 255
f 160 161 257 256
f 161 162 258 257
f 162 163 259 258
f 163 164 260 259
f 164 165 261 260
f 165 166 262 261
f 166 167 263 262
f 167 168 264 263
f 168 169 265 264
f 169 170 266 265
f 170 171 267 266
f 171 172 268 267
f 172 173 269 268
f 173 174 270 269
f 174 175 271 270
f 175 176 272 271
f 176 177 273 272
f 177 178 274 273
f 178 179 275 274
f 179 180 276 275
f 180 181 277 276
f 181 182 278 277
f 182 183 279 278
f 183 184 280 279
f 184 185 281 280
f 185 186 282 281
f 186 187 283 282
f 187 188 284 283
f 188 189 285 284
f 189 190 286 285
f 190 191 287 286
f 191 192 288 287
f 192 97 193 288
f 193 194 290 289
f 194 195 291 290
f 195 196 292 291
f 196 197 293 292
f 197 198 294 293
f 198 199 295 294
f 199 200 296 295
f 200 201 297 296
f 201 202 298 297
f 202 203 299 298
f 203 204 300 299
f 204 205 301 300
f 205 206 302 301
f 206 207 303 302
f 207 208 304 303
f 208 209 305 304
f 209 210 306 305
f 210 211 307 306
f 211 212 308 307
f 212 213 309 308
f 213 214 310 309
f 214 215 311 310
f 215 216 312 311
f 216 217 313 312
f 217 218 314 313
f 218 219 315 314
f 219 220 316 315
f 220 221 317 316
f 221 222 318 317
f 222 223 319 318
f 223 224 320 319
f 224 225 321 320
f 225 226 322 321
f 226 227 323 322
f 227 228 324 323
f 228 229 325 324
f 229 230 326 325
f 230 231 327 326
f 231 232 328 327
f 232 233 329 328
f 233 234 330 329
f 234 235 331 330
f 235 236 332 331
f 236 237 333 332
f 237 238 334 333
f 238 239 335 334
f 239 240 336 335
f 240 241 337 336
f 241 242 338 337
f 242 243 339 338
f 243 244 340 339
f 244 245 341 340
f 245 246 342 341
f 246 247 343 342
f 247 248 344 343
f 248 249 345 344
f 249 250 346 345
f 250 251 347 346
f 251 252 348 347
f 252 253 349 348
f 253 254 350 349
f 254 255 351 350
f 255 256 352 351
f 256 257 353 352
f 257 258 354 353
f 258 259 355 354
f 259 260 356 355
f 260 261 357 356
f 261 262 358 357
f 262 263 359 358
f 263 264 360 359
f 264 265 361 360
f 265 266 362 361
f 266 267 363 362
f 267 268 364 363
f 268 269 365 364
f 269 270 366 365
f 270 271 367 366
f 271 272 368 367
f 272 273 369 368
f 273 274 370 369
f 274 275 371 370
f 275 276 372 371
f 276 277 373 372
f 277 278 374 373
f 278 279 375 374
f 279 280 376 375
f 280 281 377 376
f 281 282 378 377
f 282 283 379 378
f 283 284 380 379
f 284 285 381 380
f 285 286 382 381
f 286 287 383 382
f 287 288 384 383
f 288 193 289 384
f 289 290 386 385
f 290 291 387 386
f 291 292 388 387
f 292 293 389 388
f 293 294 390 389
f 294 295 391 390
f 295 296 392 391
f 296 297 393 392
f 297 298 394 393
f 298 299 395 394
f 299 300 396 395
f 300 301 397 396
f 301 302 398 397
f 302 303 399 398
f 303 304 400 399
f 304 305 401 400
f 305 306 402 401
f 306 307 403 402
f 307 308 404 403
f 308 309 405 404
f 309 310 406 405
f 310 311 407 406
f 311 312 408 407
f 312 313 409 408
f 313 314 410 409
f 314 315 411 410
f 315 316 412 411
f 316 317 413 412
f 317 318 414 413
f 318 319 415 414
f 319 320 416 415
f 320 321 417 416
f 321 322 418 417
f 322 323 419 418
f 323 324 420 419
f 324 325 421 420
f 325 326 422 421
f 326 327 423 422
f 327 328 424 423
f 328 329 425 424
f 329 330 426 425
f 330 331 427 426
f 331 332 428 427
f 332 333 429 428
f 333 334 430 429
f 334 335 431 430
f 335 336 432 431
f 336 337 433 432
f 337 338 434 433
f 338 339 435 434
f 339 340 436 435
f 340 341 437 436
f 341 342 438 437
f 342 343 439 438
f 343 344 440 439
f 344 345 441 440
f 345 346 442 441
f 346 347 443 442
f 347 348 444 443
f 348 349 445 444
f 349 350 446 445
f 350 351 447 446
f 351 352 448 447
f 352 353 449 448
f 353 354 450 449
f 354 355 451 450
f 355 356 452 451
f 356 357 453 452
f 357 358 454 453
f 358 359 455 454
f 359 360 456 455
f 360 361 457 456
f 361 362 458 457
f 362 363 459 458
f 363 364 460 459
f 364 365 461 460
f 365 366 462 461
f 366 367 463 462
f 367 368 464 463
f 368 369 465 464
f 369 370 466 465
f 370 371 467 466
f 371 372 468 467
f 372 373 469 468
f 373 374 470 469
f 374 375 471 470
f 375 376 472 471
f 376 377 473 472
f 377 378 474 473
f 378 379 475 474
f 379 380 476 475
f 380 381 477 476
f 381 382 478 477
f 382 383 479 478
f 383 384 480 479
f 384 289 385 480
f 385 386 482 481
f 386 387 483 482
f 387 388 484 483
f 388 389 485 484
f 389 390 486 485
f 390 391 487 486
f 391 392 488 487
f 392 393 489 488
f 393 394 490 489
f 394 395 491 490
f 395 396 492 491
f 396 397 493 492
f 397 398 494 493
f 398 399 495 494
f 399 400 496 495
f 400 401 497 496
f 401 402 498 497
f 402 403 499 498
f 403 404 500 499
f 404 405 501 500
f 405 406 502 501
f 406 407 503 502
f 407 408 504 503
f 408 409 505 504
f 409 410 506 505
f 410 411 507 506
f 411 412 508 507
f 412 413 509 508
f 413 414 510 509
f 414 415 511 510
f 415 416 512 511
f 416 417 513 512
f 417 418 514 513
f 418 419 515 514
f 419 420 516 515
f 420 421 517 516
f 421 422 518 517
f 422 423 519 518
f 423 424 520 519
f 424 425 521 520
f 425 426 522 521
f 426 427 523 522
f 427 428 524 523
f 428 429 525 524
f 429 430 526 525
f 430 431 527 526
f 431 432 528 527
f 432 433 529 528
f 433 434 530 529
f 434 435 531 530
f 435 436 532 531
f 436 437 533 532
f 437 438 534 533
f 438 439 535 534
f 439 440 536 535
f 440 441 537 536
f 441 442 538 537
f 442 443 539 538
f 443 444 540 539
f 444 445 541 540
f 445 446 542 541
f 446 447 543 542
f 447 448 544 543
f 448 449 545 544
f 449 450 546 545
f 450 451 547 546
f 451 452 548 547
f 452 453 549 548
f 453 454 550 549
f 454 455 551 550
f 455 456 552 551
f 456 457 553 552
f 457 458 554 553
f 458 459 555 554
f 459 460 556 555
f 460 461 557 556
f 461 462 558 557
f 462 463 559 558
f 463 464 560 559
f 464 465 561 560
f 465 466 562 561
f 466 467 563 562
f 467 468 564 563
f 468 469 565 564
f 469 470 566 565
f 470 471 567 566
f 471 472 568 567
f 472 473 569 568
f 473 474 570 569
f 474 475 571 570
f 475 476 572 571
f 476 477 573 572
f 477 478 574 573
f 478 479 575 574
f 479 480 576 575
f 480 385 481 576
f 481 482 578 577
f 482 483 579 578
f 483 484 580 579
f 484 485 581 580
f 485 486 582 581
f 486 487 583 582
f 487 488 584 583
f 488 489 585 584
f 489 490 586 585
f 490 491 587 586
f 491 492 588 587
f 492 493 589 588
f 493 494 590 589
f 494 495 591 590
f 495 496 592 591
f 496 497 593 592
f 497 498 594 593
f 498 499 595 594
f 499 500 596 595
f 500 501 597 596
f 501 502 598 597
f 502 503 599 598
f 503 504 600 599
f 504 505 601 600
f 505 506 602 601
f 506 507 603 602
f 507 508 604 603
f 508 509 605 604
f 509 510 606 605
f 510 511 607 606
f 511 512 608 607
f 512 513 609 608
f 513 514 610 609
f 514 515 611 610
f 515 516 612 611
f 516 517 613 612
f 517 518 614 613
f 518 519 615 614
f 519 520 616 615
f 520 521 617 616
f 521 522 618 617
f 522 523 619 618
f 523 524 620 619
f 524 525 621 620
f 525 526 622 621
f 526 527 623 622
f 527 528 624 623
f 528 529 625 624
f 529 530 626 625
f 530 531 627 626
f 531 532 628 627
f 532 533 629 628
f 533 534 630 629
f 534 535 631 630
f 535 536 632 631
f 536 537 633 632
f 537 538 634 633
f 538 539 635 634
f 539 540 636 635
f 540 541 637 636
f 541 542 638 637
f 542 543 639 638
f 543 544 640 639
f 544 545 641 640
f 545 546 642 641
f 546 547 643 642
f 547 548 644 643
f 548 549 645 644
f 549 550 646 645
f 550 551 647 646
f 551 552 648 647
f 552 553 649 648
f 553 554 650 649
f 554 555 651 650
f 555 556 652 651
f 556 557 653 652
f 557 558 654 653
f 558 559 655 654
f 559 560 656 655
f 560 561 657 656
f 561 562 658 657
f 562 563 659 658
f 563 564 660 659
f 564 565 661 660
f 565 566 662 661
f 566 567 663 662
f 567 568 664 663
f 568 569 665 664
f 569 570 666 665
f 570 571 667 666
f 571 572 668 667
f 572 573 669 668
f 573 574 670 669
f 574 575 671 670
f 575 576 672 671
f 576 481 577 672
f 577 578 674 673
f 578 579 675 674
f 579 580 676 675
f 580 581 677 676
f 581 582 678 677
f 582 583 679 678
f 583 584 680 679
f 584 585 681 680
f 585 586 682 681
f 586 587 683 682
f 587 588 684 683
f 588 589 685 684
f 589 590 686 685
f 590 591 687 686
f 591 592 688 687
f 592 593 689 688
f 593 594 690 689
f 594 595 691 690
f 595 596 692 691
f 596 597 693 692
f 597 598 694 693
f 598 599 695 694
f 599 600 696 695
f 600 601 697 696
f 601 602 698 697
f 602 603 699 698
f 603 604 700 699
f 604 605 701 700
f 605 606 702 701
f 606 607 703 702
f 607 608 704 703
f 608 609 705 704
f 609 610 706 705
f 610 611 707 706
f 611 612 708 707
f 612 613 709 708
f 613 614 710 709
f 614 615 711 710
f 615 616 712 711
f 616 617 713 712
f 617 618 714 713
f 618 619 715 714
f 619 620 716 715
f 620 621 717 716
f 621 622 718 717
f 622 623 719 718
f 623 624 720 719
f 624 625 721 720
f 625 626 722 721
f 626 627 723 722
f 627 628 724 723
f 628 629 725 724
f 629 630 726 725
f 630 631 727 726
f 631 632 728 727
f 632 633 729 728
f 633 634 730 729
f 634 635 731 730
f 635 636 732 731
f 636 637 733 732
f 637 638 734 733
f 638 639 735 734
f 639 640 736 735
f 640 641 737 736
f 641 642 738 737
f 642 643 739 738
f 643 644 740 739
f 644 645 741 740
f 645 646 742 741
f 646 647 743 742
f 647 648 744 743
f 648 649 745 744
f 649 650 746 745
f 650 651 747 746
f 651 652 748 747
f 652 653 749 748
f 653 654 750 749
f 654 655 751 750
f 655 656 752 751
f 656 657 753 752
f 657 658 754 753
f 658 659 755 754
f 659 660 756 755
f 660 661 757 756
f 661 662 758 757
f 662 663 759 758
f 663 664 760 759
f 664 665 761 760
f 665 666 762 761
f 666 667 763 762
f 667 668 764 763
f 668 669 765 764
f 669 670 766 765
f 670 671 767 766
f 671 672 768 767
f 672 577 673 768
f 673 674 770 769
f 674 675 771 770
f 675 676 772 771
f 676 677 773 772
f 677 678 774 773
f 678 679 775 774
f 679 680 776 775
f 680 681 777 776
f 681 682 778 777
f 682 683 779 778
f 683 684 780 779
f 684 685 781 780
f 685 686 782 781
f 686 687 783 782
f 687 688 784 783
f 688 689 785 784
f 689 690 786 785
f 690 691 787 786
f 691 692 788 787
f 692 693 789 788
f 693 694 790 789
f 694 695 791 790
f 695 696 792 791
f 696 697 793 792
f 697 698 794 793
f 698 699 795 794
f 699 700 796 795
f 700 701 797 796
f 701 702 798 797
f 702 703 799 798
f 703 704 800 799
f 704 705 801 800
f 705 706 802 801
f 706 707 803 802
f 707 708 804 803
f 708 709 805 804
f 709 710 806 805
f 710 711 807 806
f 711 712 808 807
f 712 713 809 808
f 713 714 810 809
f 714 715 811 810
f 715 716 812 811
f 716 717 813 812
f 717 718 814 813
f 718 719 815 814
f 719 720 816 815
f 720 721 817 816
f 721 722 818 817
f 722 723 819 818
f 723 724 820 819
f 724 725 821 820
f 725 726 822 821
f 726 727 823 822
f 727 728 824 823
f 728 729 825 824
f 729 730 826 825
f 730 731 827 826
f 731 732 828 827
f 732 733 829 828
f 733 734 830 829
f 734 735 831 830
f 735 736 832 831
f 736 737 833 832
f 737 738 834 833
f 738 739 835 834
f 739 740 836 835
f 740 741 837 836
f 741 742 838 837
f 742 743 839 838
f 743 744 840 839
f 744 745 841 840
f 745 746 842 841
f 746 747 843 842
f 747 748 844 843
f 748 749 845 844
f 749 750 846 845
f 750 751 847 846
f 751 752 848 847
f 752 753 849 848
f 753 754 850 849
f 754 755 851 850
f 755 756 852 851
f 756 757 853 852
f 757 758 854 853
f 758 759 855 854
f 759 760 856 855
f 760 761 857 856
f 761 762 858 857
f 762 763 859 858
f 763 764 860 859
f 764 765 861 860
f 765 766 862 861
f 766 767 863 862
f 767 768 864 863
f 768 673 769 864
f 769 770 866 865
f 770 771 867 866
f 771 772 868 867
f 772 773 869 868
f 773 774 870 869
f 774 775 871 870
f 775 776 872 871
f 776 777 873 872
f 777 778 874 873
f 778 779 875 874
f 779 780 876 875
f 780 781 877 876
f 781 782 878 877
f 782 783 879 878
f 783 784 880 879
f 784 785 881 880
f 785 786 882 881
f 786 787 883 882
f 787 788 884 883
f 788 789 885 884
f 789 790 886 885
f 790 791 887 886
f 791 792 888 887
f 792 793 889 888
f 793 794 890 889
f 794 795 891 890
f 795 796 892 891
f 796 797 893 892
f 797 798 894 893
f 798 799 895 894
f 799 800 896 895
f 800 801 897 896
f 801 802 898 897
f 802 803 899 898
f 803 804 900 899
f 804 805 901 900
f 805 806 902 901
f 806 807 903 902
f 807 808 904 903
f 808 809 905 904
f 809 810 906 905
f 810 811 907 906
f 811 812 908 907
f 812 813 909 908
f 813 814 910 909
f 814 815 911 910
f 815 816 912 911
f 816 817 913 912
f 817 818 914 913
f 818 819 915 914
f 819 820 916 915
f 820 821 917 916
f 821 822 918 917
f 822 823 919 918
f 823 824 920 919
f 824 825 921 920
f 825 826 922 921
f 826 827 923 922
f 827 828 924 923
f 828 829 925 924
f 829 830 926 925
f 830 831 927 926
f 831 832 928 927
f 832 833 929 928
f 833 834 930 929
f 834 835 931 930
f 835 836 932 931
f 836 837 933 932
f 837 838 934 933
f 838 839 935 934
f 839 840 936 935
f 840 841 937 936
f 841 842 938 937
f 842 843 939 938
f 843 844 940 939
f 844 845 941 940
f 845 846 942 941
f 846 847 943 942
f 847 848 944 943
f 848 849 945 944
f 849 850 946 945
f 850 851 947 946
f 851 852 948 947
f 852 853 949 948
f 853 854 950 949
f 854 855 951 950
f 855 856 952 951
f 856 857 953 952
f 857 858 954 953
f 858 859 955 954
f 859 860 956 955
f 860 861 957 956
f 861 862 958 957
f 862 863 959 958
f 863 864 960 959
f 864 769 865 960
